<?xml version="1.0" encoding="UTF-8"?>
<svg width="192" height="192" viewBox="0 0 24 24" fill="none" xmlns="http://www.w3.org/2000/svg">
  <rect width="24" height="24" rx="12" fill="#4F46E5"/>
  <path d="M12 6C12.5523 6 13 5.55228 13 5C13 4.44772 12.5523 4 12 4C11.4477 4 11 4.44772 11 5C11 5.55228 11.4477 6 12 6Z" fill="white"/>
  <path d="M19 12C19 13.8565 18.3283 15.637 17.1283 17.0001C15.9283 18.3632 14.2739 19.0001 12.5 19.0001H11.5C9.72606 19.0001 8.0717 18.3632 6.87167 17.0001C5.67163 15.637 5 13.8565 5 12C5 9.34784 6.05357 6.8043 7.92893 4.92893C9.8043 3.05357 12.3478 2 15 2H15.5C16.0523 2 16.5 2.44772 16.5 3C16.5 3.55228 16.0523 4 15.5 4H15C12.8783 4 10.8434 4.84285 9.34315 6.34315C7.84285 7.84344 7 9.87827 7 12C7 13.3261 7.47411 14.598 8.31802 15.5982C9.16193 16.5984 10.3065 17.2501 11.5 17.2501H12.5C13.6935 17.2501 14.8381 16.5984 15.682 15.5982C16.5259 14.598 17 13.3261 17 12C17 11.4477 17.4477 11 18 11C18.5523 11 19 11.4477 19 12Z" fill="white"/>
  <path d="M12 22C13.1046 22 14 21.1046 14 20C14 18.8954 13.1046 18 12 18C10.8954 18 10 18.8954 10 20C10 21.1046 10.8954 22 12 22Z" fill="white"/>
</svg>
